<mxfile host="app.diagrams.net" modified="2024-05-21T23:37:11.709Z" agent="Mozilla/5.0 (X11; Linux x86_64) AppleWebKit/537.36 (KHTML, like Gecko) Chrome/120.0.0.0 Safari/537.36" etag="9nmqENN8EM4uUh_qMAoT" version="24.4.4" type="google">
  <diagram name="Página-1" id="Od_aLquO7sA0Xk2ra2n4">
    <mxGraphModel grid="1" page="1" gridSize="10" guides="1" tooltips="1" connect="1" arrows="1" fold="1" pageScale="1" pageWidth="827" pageHeight="1169" math="0" shadow="0">
      <root>
        <mxCell id="0" />
        <mxCell id="1" parent="0" />
        <mxCell id="BjsGBwOz0mGNyiHquhx_-28" value="" style="rounded=0;whiteSpace=wrap;html=1;" vertex="1" parent="1">
          <mxGeometry y="-830" width="1620" height="1620" as="geometry" />
        </mxCell>
        <mxCell id="BjsGBwOz0mGNyiHquhx_-2" value="Cliente" style="shape=umlActor;verticalLabelPosition=bottom;verticalAlign=top;html=1;outlineConnect=0;" vertex="1" parent="1">
          <mxGeometry x="120" y="-270" width="30" height="60" as="geometry" />
        </mxCell>
        <mxCell id="BjsGBwOz0mGNyiHquhx_-6" value="União de Proteção aos Animais" style="shape=umlActor;verticalLabelPosition=bottom;verticalAlign=top;html=1;outlineConnect=0;" vertex="1" parent="1">
          <mxGeometry x="1330" y="130" width="30" height="60" as="geometry" />
        </mxCell>
        <mxCell id="BjsGBwOz0mGNyiHquhx_-7" value="Visualizar pets disponiveis&amp;nbsp; para adoção&amp;nbsp;" style="ellipse;whiteSpace=wrap;html=1;align=center;" vertex="1" parent="1">
          <mxGeometry x="570" y="-180" width="150" height="100" as="geometry" />
        </mxCell>
        <mxCell id="BjsGBwOz0mGNyiHquhx_-10" value="Realizar Login&amp;nbsp;" style="ellipse;whiteSpace=wrap;html=1;align=center;" vertex="1" parent="1">
          <mxGeometry x="330" y="-570" width="150" height="100" as="geometry" />
        </mxCell>
        <mxCell id="BjsGBwOz0mGNyiHquhx_-11" value="Cadastrar-se&amp;nbsp;" style="ellipse;whiteSpace=wrap;html=1;align=center;" vertex="1" parent="1">
          <mxGeometry x="520" y="-70" width="150" height="100" as="geometry" />
        </mxCell>
        <mxCell id="BjsGBwOz0mGNyiHquhx_-12" value="Adicionar pet para doação&amp;nbsp;" style="ellipse;whiteSpace=wrap;html=1;align=center;" vertex="1" parent="1">
          <mxGeometry x="470" y="-510" width="150" height="100" as="geometry" />
        </mxCell>
        <mxCell id="BjsGBwOz0mGNyiHquhx_-13" value="Adicionar pet para adoção&amp;nbsp;" style="ellipse;whiteSpace=wrap;html=1;align=center;" vertex="1" parent="1">
          <mxGeometry x="540" y="-400" width="150" height="100" as="geometry" />
        </mxCell>
        <mxCell id="BjsGBwOz0mGNyiHquhx_-14" value="Enviar denúncias de maus-tratos" style="ellipse;whiteSpace=wrap;html=1;align=center;" vertex="1" parent="1">
          <mxGeometry x="590" y="-290" width="150" height="100" as="geometry" />
        </mxCell>
        <mxCell id="BjsGBwOz0mGNyiHquhx_-22" value="Visualizar Denúncias&lt;span style=&quot;color: rgba(0, 0, 0, 0); font-family: monospace; font-size: 0px; text-align: start; text-wrap: nowrap;&quot;&gt;%3CmxGraphModel%3E%3Croot%3E%3CmxCell%20id%3D%220%22%2F%3E%3CmxCell%20id%3D%221%22%20parent%3D%220%22%2F%3E%3CmxCell%20id%3D%222%22%20value%3D%22Gerenciar%20usu%C3%A1rios%26lt%3Bspan%20style%3D%26quot%3Bcolor%3A%20rgba(0%2C%200%2C%200%2C%200)%3B%20font-family%3A%20monospace%3B%20font-size%3A%200px%3B%20text-align%3A%20start%3B%20text-wrap%3A%20nowrap%3B%26quot%3B%26gt%3B%253CmxGraphModel%253E%253Croot%253E%253CmxCell%2520id%253D%25220%2522%252F%253E%253CmxCell%2520id%253D%25221%2522%2520parent%253D%25220%2522%252F%253E%253CmxCell%2520id%253D%25222%2522%2520value%253D%2522Editar%2520Perfil%2522%2520style%253D%2522ellipse%253BwhiteSpace%253Dwrap%253Bhtml%253D1%253Balign%253Dcenter%253B%2522%2520vertex%253D%25221%2522%2520parent%253D%25221%2522%253E%253CmxGeometry%2520x%253D%2522220%2522%2520y%253D%2522-350%2522%2520width%253D%2522150%2522%2520height%253D%2522100%2522%2520as%253D%2522geometry%2522%252F%253E%253C%252FmxCell%253E%253C%252Froot%253E%253C%252FmxGraphModel%253E%26lt%3B%2Fspan%26gt%3B%22%20style%3D%22ellipse%3BwhiteSpace%3Dwrap%3Bhtml%3D1%3Balign%3Dcenter%3B%22%20vertex%3D%221%22%20parent%3D%221%22%3E%3CmxGeometry%20x%3D%22530%22%20y%3D%22-120%22%20width%3D%22150%22%20height%3D%22100%22%20as%3D%22geometry%22%2F%3E%3C%2FmxCell%3E%3C%2Froot%3E%3C%2FmxGraphModel%3E&lt;/span&gt;" style="ellipse;whiteSpace=wrap;html=1;align=center;" vertex="1" parent="1">
          <mxGeometry x="1020" y="-30" width="150" height="100" as="geometry" />
        </mxCell>
        <mxCell id="BjsGBwOz0mGNyiHquhx_-23" value="Visualizar Adoção de pet&lt;span style=&quot;color: rgba(0, 0, 0, 0); font-family: monospace; font-size: 0px; text-align: start; text-wrap: nowrap;&quot;&gt;%3CmxGraphModel%3E%3Croot%3E%3CmxCell%20id%3D%220%22%2F%3E%3CmxCell%20id%3D%221%22%20parent%3D%220%22%2F%3E%3CmxCell%20id%3D%222%22%20value%3D%22Editar%20Perfil%22%20style%3D%22ellipse%3BwhiteSpace%3Dwrap%3Bhtml%3D1%3Balign%3Dcenter%3B%22%20vertex%3D%221%22%20parent%3D%221%22%3E%3CmxGeometry%20x%3D%22220%22%20y%3D%22-350%22%20width%3D%22150%22%20height%3D%22100%22%20as%3D%22geometry%22%2F%3E%3C%2FmxCell%3E%3C%2Froot%3E%3C%2FmxGraphModel%3E&lt;/span&gt;" style="ellipse;whiteSpace=wrap;html=1;align=center;" vertex="1" parent="1">
          <mxGeometry x="1030" y="90" width="150" height="100" as="geometry" />
        </mxCell>
        <mxCell id="BjsGBwOz0mGNyiHquhx_-24" value="Visualizar Doação de pets&lt;span style=&quot;color: rgba(0, 0, 0, 0); font-family: monospace; font-size: 0px; text-align: start; text-wrap: nowrap;&quot;&gt;3CmxGraphModel%3E%3Croot%3E%3CmxCell%20id%3D%220%22%2F%3E%3CmxCell%20id%3D%221%22%20parent%3D%220%22%2F%3E%3CmxCell%20id%3D%222%22%20value%3D%22Editar%20Perfil%22%20style%3D%22ellipse%3BwhiteSpace%3Dwrap%3Bhtml%3D1%3Balign%3Dcenter%3B%22%20vertex%3D%221%22%20parent%3D%221%22%3E%3CmxGeometry%20x%3D%22220%22%20y%3D%22-350%22%20width%3D%22150%22%20height%3D%22100%22%20as%3D%22geometry%22%2F%3E%3C%2FmxCell%3E%3C%2Froot%3E%3C%2FmxGraphModel%3E&lt;/span&gt;" style="ellipse;whiteSpace=wrap;html=1;align=center;" vertex="1" parent="1">
          <mxGeometry x="1050" y="210" width="150" height="100" as="geometry" />
        </mxCell>
        <mxCell id="BjsGBwOz0mGNyiHquhx_-31" value="" style="endArrow=classic;html=1;rounded=0;entryX=0;entryY=1;entryDx=0;entryDy=0;exitX=1;exitY=0.3333333333333333;exitDx=0;exitDy=0;exitPerimeter=0;" edge="1" parent="1" source="BjsGBwOz0mGNyiHquhx_-2" target="BjsGBwOz0mGNyiHquhx_-10">
          <mxGeometry width="50" height="50" relative="1" as="geometry">
            <mxPoint x="730" y="-300" as="sourcePoint" />
            <mxPoint x="780" y="-350" as="targetPoint" />
          </mxGeometry>
        </mxCell>
        <mxCell id="BjsGBwOz0mGNyiHquhx_-32" value="" style="endArrow=classic;html=1;rounded=0;exitX=1;exitY=0.3333333333333333;exitDx=0;exitDy=0;exitPerimeter=0;entryX=0;entryY=0.5;entryDx=0;entryDy=0;" edge="1" parent="1" source="BjsGBwOz0mGNyiHquhx_-2" target="BjsGBwOz0mGNyiHquhx_-12">
          <mxGeometry width="50" height="50" relative="1" as="geometry">
            <mxPoint x="730" y="-300" as="sourcePoint" />
            <mxPoint x="780" y="-350" as="targetPoint" />
          </mxGeometry>
        </mxCell>
        <mxCell id="BjsGBwOz0mGNyiHquhx_-33" value="" style="endArrow=classic;html=1;rounded=0;exitX=1;exitY=0.3333333333333333;exitDx=0;exitDy=0;exitPerimeter=0;" edge="1" parent="1" source="BjsGBwOz0mGNyiHquhx_-2" target="BjsGBwOz0mGNyiHquhx_-13">
          <mxGeometry width="50" height="50" relative="1" as="geometry">
            <mxPoint x="730" y="-300" as="sourcePoint" />
            <mxPoint x="780" y="-350" as="targetPoint" />
          </mxGeometry>
        </mxCell>
        <mxCell id="BjsGBwOz0mGNyiHquhx_-34" value="" style="endArrow=classic;html=1;rounded=0;exitX=1;exitY=0.3333333333333333;exitDx=0;exitDy=0;exitPerimeter=0;" edge="1" parent="1" source="BjsGBwOz0mGNyiHquhx_-2" target="BjsGBwOz0mGNyiHquhx_-14">
          <mxGeometry width="50" height="50" relative="1" as="geometry">
            <mxPoint x="730" y="-300" as="sourcePoint" />
            <mxPoint x="780" y="-350" as="targetPoint" />
          </mxGeometry>
        </mxCell>
        <mxCell id="BjsGBwOz0mGNyiHquhx_-37" value="" style="endArrow=classic;html=1;rounded=0;" edge="1" parent="1" target="BjsGBwOz0mGNyiHquhx_-7">
          <mxGeometry width="50" height="50" relative="1" as="geometry">
            <mxPoint x="150" y="-250" as="sourcePoint" />
            <mxPoint x="780" y="-30" as="targetPoint" />
          </mxGeometry>
        </mxCell>
        <mxCell id="BjsGBwOz0mGNyiHquhx_-41" value="" style="endArrow=classic;html=1;rounded=0;exitX=1;exitY=0.3333333333333333;exitDx=0;exitDy=0;exitPerimeter=0;" edge="1" parent="1" source="BjsGBwOz0mGNyiHquhx_-2" target="BjsGBwOz0mGNyiHquhx_-11">
          <mxGeometry width="50" height="50" relative="1" as="geometry">
            <mxPoint x="150" y="360" as="sourcePoint" />
            <mxPoint x="780" y="290" as="targetPoint" />
          </mxGeometry>
        </mxCell>
        <mxCell id="BjsGBwOz0mGNyiHquhx_-43" value="" style="endArrow=classic;html=1;rounded=0;exitX=0;exitY=0.3333333333333333;exitDx=0;exitDy=0;exitPerimeter=0;entryX=1;entryY=0.5;entryDx=0;entryDy=0;" edge="1" parent="1" source="BjsGBwOz0mGNyiHquhx_-6" target="BjsGBwOz0mGNyiHquhx_-22">
          <mxGeometry width="50" height="50" relative="1" as="geometry">
            <mxPoint x="730" y="340" as="sourcePoint" />
            <mxPoint x="780" y="290" as="targetPoint" />
          </mxGeometry>
        </mxCell>
        <mxCell id="BjsGBwOz0mGNyiHquhx_-44" value="" style="endArrow=classic;html=1;rounded=0;exitX=0;exitY=0.3333333333333333;exitDx=0;exitDy=0;exitPerimeter=0;" edge="1" parent="1" source="BjsGBwOz0mGNyiHquhx_-6" target="BjsGBwOz0mGNyiHquhx_-23">
          <mxGeometry width="50" height="50" relative="1" as="geometry">
            <mxPoint x="730" y="340" as="sourcePoint" />
            <mxPoint x="780" y="290" as="targetPoint" />
          </mxGeometry>
        </mxCell>
        <mxCell id="BjsGBwOz0mGNyiHquhx_-45" value="" style="endArrow=classic;html=1;rounded=0;exitX=0;exitY=0.3333333333333333;exitDx=0;exitDy=0;exitPerimeter=0;entryX=1;entryY=0.5;entryDx=0;entryDy=0;" edge="1" parent="1" source="BjsGBwOz0mGNyiHquhx_-6" target="BjsGBwOz0mGNyiHquhx_-24">
          <mxGeometry width="50" height="50" relative="1" as="geometry">
            <mxPoint x="730" y="340" as="sourcePoint" />
            <mxPoint x="780" y="290" as="targetPoint" />
          </mxGeometry>
        </mxCell>
      </root>
    </mxGraphModel>
  </diagram>
</mxfile>
